<?xml version="1.0" encoding="utf-8"?>
<!-- Generator: Adobe Illustrator 24.0.0, SVG Export Plug-In . SVG Version: 6.00 Build 0)  -->
<svg version="1.1" id="Layer_1" xmlns="http://www.w3.org/2000/svg" xmlns:xlink="http://www.w3.org/1999/xlink" x="0px" y="0px"
	 viewBox="0 0 735 479.25" style="enable-background:new 0 0 735 479.25;" xml:space="preserve">
<style type="text/css">
	.st0{fill:#FDFDFD;}
	.st1{fill:#050505;}
	.st2{fill:#0404EF;}
</style>
<g>
	<path class="st0" d="M580.33,39.71c-0.71,0.01-1.42-0.04-2.12-0.04c0.7,0,1.41,0.05,2.11,0.05c1.41,0,2.81,0.03,4.21,0.06
		C583.14,39.74,581.74,39.72,580.33,39.71z"/>
	<path class="st1" d="M595.98,326.67c-3.5-1.89-6.52-0.94-8.76,2.69c-8.73,14.13-19.48,26.45-32.66,36.64
		c-9.63,7.45-20.07,12.69-32.43,14.11c-15.92,1.84-27.75-5.99-31.37-21.51c-1.52-6.5-1.64-13.04-0.96-19.69
		c0.26-2.55,0.84-3.01,3.31-2.45c10.22,2.35,20.51,1.94,30.15-2.01c29.08-11.91,45.21-34.75,50.18-64.82
		c3.93-23.68-18.06-39.6-40.43-30.72c-10.17,4.04-17.83,11.25-24.46,19.67c-15.66,19.91-24.02,43.05-29.86,67.33
		c-1.15,4.8-0.38,10.02-3.15,14.45c-7.51,12.03-16.62,22.71-27.47,31.84c-10.53,8.87-21.9,15.85-36.05,17.59
		c-15.99,1.96-27.83-5.26-31.87-20.37c-1.82-6.82-1.97-13.75-1.22-20.78c0.27-2.57,0.91-3,3.32-2.45
		c10.36,2.36,20.73,1.89,30.49-2.17c29.04-12.06,44.88-34.97,49.91-65.04c3.31-19.76-11.66-34.32-31.48-32.51
		c-11.53,1.05-20.47,7.46-28.09,15.67c-19.33,20.86-28.81,46.5-35.17,73.57c-1.1,4.7-0.44,10.16-2.59,14.21
		c-6.71,12.61-12.86,25.63-22.17,36.69c-2.32,2.77-4.69,5.47-7.82,7.42c-6.53,4.06-12.28,2.13-14.6-5.19
		c-2.09-6.62-2.19-13.49-1.77-20.34c0.93-15.15,5.18-29.59,9.61-43.99c3.79-12.32,6.85-24.73,4.87-37.81
		c-2.46-16.28-16.2-26.17-32.35-23.28c-10.42,1.86-17.92,8.23-24.81,15.63c-1.14,1.23-1.98,2.88-4.27,3.25
		c1.22-4.21,2.35-7.97,3.41-11.75c4.71-16.74,9.45-33.48,14.06-50.26c1.15-4.17-1.37-7.72-5.83-8.8c-3.41-0.83-5.25,0.61-6.59,5.26
		c-3.38,11.7-6.83,23.37-10.08,35.1c-12.7,45.87-25.89,91.61-35.82,138.2c-1.32,6.2-2.54,12.44-3.29,18.73
		c-0.46,3.91,2.98,7.23,6.78,7.47c3.62,0.23,5.07-1.28,6.02-5.97c4.8-23.75,9.23-47.59,17.71-70.43
		c6.7-18.05,14.45-35.51,26.84-50.5c4.65-5.62,9.95-10.52,16.97-13.09c8.1-2.96,17.36-1.06,18.85,10.26
		c0.96,7.29,0.38,14.47-1.5,21.48c-4.43,16.57-9.74,32.92-12.03,50.01c-1.52,11.43-2.32,22.87,1.8,33.97
		c6.43,17.35,25.49,21.78,39.01,9.21c3.22-3,5.91-6.43,8.29-10.09c3.92-6.02,7.75-12.09,11.73-18.32
		c2.93,8.24,7.02,15.27,13.97,20.6c11.61,8.89,24.56,10.23,38.31,7.49c17.68-3.51,31.6-13.57,44.25-25.77
		c4.73-4.55,8.9-9.63,13.53-14.91c0.5,1.63,0.82,2.78,1.2,3.91c4.82,14.43,14.89,23.44,29.38,27.15c10.26,2.62,20.7,1.38,30.54-2.28
		c26.78-9.94,45-29.62,59.34-53.44C600.84,332.26,599.36,328.48,595.98,326.67z M524.22,261.4c4.86-5.26,10.37-9.69,17.41-11.82
		c12.03-3.65,20.64,3.29,19.74,15.92c-0.83,11.42-5.73,21.28-11.87,30.62c-6.09,9.27-13.4,17.37-23.13,23.01
		c-10.58,6.13-21.9,7.89-34.21,5.43C498.95,301.31,507.65,279.35,524.22,261.4z M384.09,325.14c6.41-19.67,14.79-38.31,29-53.77
		c4.94-5.38,10.53-9.9,17.69-12.06c12.08-3.63,20.67,3.25,19.68,15.93c-1.12,14.52-8.21,26.46-16.91,37.56
		c-8.27,10.55-18.45,18.5-31.9,21.48c-3.29,0.73-6.63,1.14-10.01,1.16C380.8,335.35,380.76,335.34,384.09,325.14z"/>
	<path class="st1" d="M111.4,379.46c-6.48,10.99-14.12,21.12-22.91,30.39c-7.16,7.54-14.71,14.62-24.24,19.09
		c-9.54,4.47-19.26,6.28-28.82,0.04c-7.55-4.92-10.72-12.54-12.12-21.01c-2.68-16.26-0.39-32.3,2.62-48.26
		c3.62-19.2,8.69-38.04,14.55-56.67c0.29-0.92,0.47-1.87,0.82-3.27c-6.35,0.85-12.37,1.58-18.36,2.49
		c-5.64,0.85-8.67-0.31-10.36-4.3c-1.7-3.99-0.02-6.93,4.28-7.45c8.55-1.03,17.08-2.15,25.64-2.99c2.57-0.26,3.49-1.41,4.23-3.71
		c5.06-15.6,10.28-31.15,15.46-46.72c0.27-0.83,0.54-1.66,0.85-2.47c1.52-4.07,4.18-5.53,7.71-4.26c4.45,1.6,6.26,4.81,4.83,9.03
		c-2.29,6.7-4.81,13.33-7.1,20.03c-2.89,8.45-5.65,16.95-8.6,25.86c7.86-0.59,15.37-1.23,22.9-1.69c3.35-0.2,6.73-0.17,10.09-0.03
		c3.03,0.12,5.13,1.73,6.17,4.62c1.37,3.8-0.53,6.76-4.57,6.95c-11.85,0.56-23.64,1.62-35.43,2.84c-2.37,0.25-3.47,1.11-4.17,3.3
		c-7.68,24.05-14.79,48.27-18.5,73.3c-1.58,10.59-2.55,21.31-1.1,32.05c0.07,0.5,0.08,1,0.17,1.49c1.98,11.59,8.4,15.36,19.23,10.93
		c9.42-3.86,16.89-10.54,23.78-17.81c8.16-8.61,15.4-17.97,21.18-28.39c2.04-3.68,5.33-4.72,8.75-2.84
		C112.01,371.99,113.43,376.03,111.4,379.46z"/>
	<path class="st2" d="M653.2,392.85c-0.5,0.92-1.47,1.68-2.39,2.26c-37.32,23.53-76.51,42.84-119.82,52.78
		c-25.4,5.82-51.19,8.22-77.17,8.99c-39.76,1.19-79.3-1.78-118.79-5.95c-3.35-0.36-6.7-0.65-10.06-0.95
		c-2.95-0.26-4.95-1.61-5.36-4.71c-0.4-3.1,1.37-5.36,4.45-4.95c9.1,1.22,18.38,0.98,27.34,3.43c2.91,0.79,6,0.23,9.05,0.79
		c4.41,0.8,8.99,0.71,13.51,1c0.36-0.01,0.73-0.02,1.09-0.03c0.31,0,0.63,0.01,0.94,0.02c2.23,1.35,4.58,0.62,6.9,0.39
		c0.48,0.07,0.95,0.14,1.43,0.22c7.73,0.95,15.46,1.97,23.29,1.29c0.47,0.06,0.95,0.12,1.42,0.18c0.8,1.17,2.04,0.76,3.09,0.76
		c14.55,0.08,29.1,0.22,43.66,0.12c6.06-0.04,12.13-0.48,18.18-0.97c6.5-0.52,13.01-1.06,19.44-2.06c5.68-0.87,11.54-0.83,17-2.98
		c7.06-0.25,13.5-3.27,20.33-4.61c10.95-2.16,21.76-5.35,32.1-9.29c18.57-7.07,36.84-15.01,54.25-24.78
		c9.89-5.55,19.68-11.27,29.3-17.28c2.03-1.26,4.04-1.45,5.84,0.23C654.04,388.47,654.39,390.66,653.2,392.85z"/>
	<path class="st2" d="M540.01,45.74c-9.79,11.79-18.56,24.39-29.1,35.59c-18.59,19.77-41.6,28.88-73.04,29.21
		c-38.67-2.63-75.09-18.45-100.83-54.73c-4.71-6.63-8.18-13.95-11.02-21.57c-1.04-2.79-0.95-5.16,2.12-6.52
		c2.89-1.28,5.63-0.07,6.85,3.12c10.91,28.58,31.77,47.46,59.05,59.76c25.83,11.64,52.42,13.63,79.52,4.56
		c13.02-4.36,23.16-12.86,32.19-22.89c9.44-10.48,17.85-21.79,26.8-32.66c3.65-4.43,5.5-5.1,8.18-2.96
		C543.42,38.8,543.2,41.89,540.01,45.74z"/>
	<path class="st2" d="M306.71,19.8c0.11,3.43-1.81,4.96-6.31,4.98c-6.12,0.02-12.23,0-15.85,0c-25.37,0.67-48.07,2.62-70.13,9.22
		c-29.09,8.7-52.41,26.11-72.49,48.34c-11.05,12.24-20.84,25.46-30.1,39.08c-0.77,1.14-1.51,2.3-2.33,3.4
		c-1.99,2.68-4.65,3.27-7.11,1.62c-2.47-1.66-2.79-4.12-0.76-7.15c8.77-13.05,17.83-25.89,28.04-37.86
		c14.24-16.7,29.93-31.76,49.3-42.54c19.39-10.79,40.29-16.96,62.14-20.11c6.48-0.94,13.15-1,19.56-1.84
		c13.29-1.74,26.56-1.51,39.85-1.77C304.96,15.08,306.61,16.41,306.71,19.8z"/>
	<path class="st2" d="M722.68,126.51c-2.84,1.78-5.31,0.84-7.97-2.98c-21.02-30.18-48.23-52.52-82.97-65.27
		c-18.86-6.92-38.36-9.74-58.41-8.7c-2.57,0.14-4.37-0.7-5.24-3.16c-0.85-2.4,0.36-4.52,2.12-5.43c1.95-1,4.46-0.94,6.75-1.23
		c0.41-0.05,0.83-0.07,1.25-0.07c0.7,0,1.41,0.05,2.12,0.04c1.41,0.01,2.81,0.03,4.2,0.07c0.7,0.01,1.4,0.04,2.09,0.07
		c1.39,0.05,2.77,0.12,4.14,0.21c1.38,0.09,2.74,0.19,4.1,0.31s2.72,0.25,4.07,0.41c1.35,0.15,2.69,0.31,4.03,0.5
		c1.33,0.18,2.66,0.38,3.98,0.6c4.63,0.75,9.18,1.69,13.65,2.83c1.28,0.32,2.55,0.66,3.81,1.02c26.57,7.44,50.36,21.62,71.81,41.5
		c10.01,9.27,18.76,19.65,26.47,30.9C725.48,122.21,725.42,124.8,722.68,126.51z"/>
	<path class="st2" d="M679.55,324.36c-1.21,1.66-2.98,2.23-4.96,1.94c-1.9-0.28-2.95-1.71-3.89-3.23
		c-6.81-11.03-13.83-21.93-20.41-33.09c-12.94-21.96-24.23-44.66-30.3-69.62c-2.48-10.2-4.14-20.52-4.3-31.03
		c-0.05-3.65,1.53-5.3,5.22-5.23c2.94,0.21,4.2,2.24,4.32,5.42c0.48,13.28,2.96,26.2,6.9,38.87c6.77,21.82,17.36,41.82,29.13,61.25
		c5.87,9.68,11.97,19.23,17.99,28.82C680.46,320.39,681.03,322.34,679.55,324.36z"/>
	<path class="st2" d="M251.76,270.94c-2.66,1.4-4.78,0.2-6.27-3.26c-5.12-11.89-7.89-24.39-9.4-37.18
		c-1.65-14.03-1.58-28.12-1.38-42.22h0.95c0-11.34,0.17-22.68-0.07-34.02c-0.12-5.34,3.61-6.35,7.68-4.49
		c1.86,0.85,1.94,2.33,1.9,4.01c-0.33,11.85-0.62,23.69-0.95,35.53c-0.58,20.52-0.37,40.97,5.22,60.97
		c1.3,4.68,3.02,9.21,4.84,13.71C255.51,267.02,254.57,269.45,251.76,270.94z"/>
	<path class="st2" d="M206.26,336.21c-0.9,3.6-3.51,6.01-7.07,6.09c-24.21,0.53-48.14,4.14-72.16,6.75
		c-5.84,0.64-7.39-0.11-7.81-3.67c-0.45-3.77,2.74-7.63,7.03-8.26c5.79-0.85,11.6-1.62,17.41-2.28c16.84-1.9,33.66-4.03,50.6-5
		c2.49,0,4.99-0.12,7.47,0.03C205.68,330.11,207.22,332.36,206.26,336.21z"/>
	<path class="st2" d="M727.33,138.15c-7.19,15.72-16.95,29.33-32.39,38.05c-3.87,2.19-7.68,0.29-7.82-3.78
		c-0.06-1.77,0.63-3.12,2.21-4.01c13.98-7.87,22.79-20.17,29.33-34.37c1.28-2.77,3.22-3.72,6.01-2.74
		C727.33,132.24,728.63,135.3,727.33,138.15z"/>
	<path class="st2" d="M146.15,155.65c0.1,3.39-2.85,6.11-6.18,5.2c-13.93-3.83-23.3-12.91-29.04-25.92
		c-0.95-2.14-0.53-4.25,1.92-5.32c2.95-1.28,5.55-0.65,6.98,2.25c2.02,4.07,4.38,7.8,7.67,10.96c4.2,4.04,8.91,7.16,14.64,8.6
		C144.34,151.98,146.06,153.06,146.15,155.65z"/>
	<path class="st1" d="M510.4,442.48c-5.46,2.15-11.32,2.11-17,2.98c-6.43,1-12.94,1.54-19.44,2.06c-6.05,0.49-12.12,0.93-18.18,0.97
		c-14.56,0.1-29.11-0.04-43.66-0.12c-1.05,0-2.29,0.41-3.09-0.76c16.08,0.3,32.16,0.64,48.24,0.08c16.94-0.59,33.81-2.09,50.52-5.02
		C508.65,442.52,509.53,442.54,510.4,442.48z"/>
	<path class="st1" d="M407.61,447.43c-7.83,0.68-15.56-0.34-23.29-1.29C392.08,446.57,399.84,447,407.61,447.43z"/>
	<path class="st1" d="M382.89,445.92c-2.32,0.23-4.67,0.96-6.9-0.39C378.29,445.66,380.59,445.79,382.89,445.92z"/>
</g>
</svg>
